<?xml version="1.0"?>
<svg xmlns="http://www.w3.org/2000/svg" xmlns:xlink="http://www.w3.org/1999/xlink" version="1.1" id="Capa_1" x="0px" y="0px" viewBox="0 0 512 512" style="enable-background:new 0 0 512 512;" xml:space="preserve" width="512px" height="512px" class=""><g><g>
	<g>
		<path d="M215.51,236.721C212.703,242.588,211,249.073,211,256c0,24.814,20.186,45,45,45c6.927,0,13.412-1.703,19.279-4.51    L215.51,236.721z" data-original="#000000" class="active-path" data-old_color="#E1DFDF" fill="#EBE9E9"/>
	</g>
</g><g>
	<g>
		<path d="M297.294,318.505C285.436,326.366,271.26,331,256,331c-41.353,0-75-33.647-75-75c0-15.26,4.634-29.436,12.495-41.294    l-62.662-62.662C125.122,154.164,121,159.557,121,166v180c0,8.276,6.724,15,15,15h203.789L297.294,318.505z" data-original="#000000" class="active-path" data-old_color="#E1DFDF" fill="#EBE9E9"/>
	</g>
</g><g>
	<g>
		<path d="M256,0C192.926,0,133.528,23.994,86.814,65.603L142.211,121h26.719l14.355-22.954C186.024,93.666,190.829,91,196,91h120    c5.171,0,9.976,2.666,12.715,7.046L343.07,121H376c24.814,0,45,20.186,45,45v180c0,14.648-7.141,27.556-18.01,35.779    l43.407,43.407C488.006,378.472,512,319.074,512,256C512,115.086,396.955,0,256,0z" data-original="#000000" class="active-path" data-old_color="#E1DFDF" fill="#EBE9E9"/>
	</g>
</g><g>
	<g>
		<path d="M376,151h-41.25c-5.171,0-9.976-2.666-12.715-7.046L307.68,121H204.32l-14.355,22.954    c-2.739,4.38-7.544,7.046-12.715,7.046h-5.039l42.495,42.495C226.564,185.634,240.74,181,256,181c41.353,0,75,33.647,75,75    c0,15.26-4.634,29.436-12.495,41.294l62.662,62.662c5.711-2.12,9.833-7.513,9.833-13.956V166C391,157.724,384.276,151,376,151z     M346,211c-8.284,0-15-6.716-15-15c0-8.286,6.716-15,15-15s15,6.714,15,15C361,204.284,354.284,211,346,211z" data-original="#000000" class="active-path" data-old_color="#E1DFDF" fill="#EBE9E9"/>
	</g>
</g><g>
	<g>
		<path d="M256,211c-6.927,0-13.412,1.703-19.279,4.51l59.769,59.769c2.807-5.867,4.51-12.352,4.51-19.279    C301,231.186,280.814,211,256,211z" data-original="#000000" class="active-path" data-old_color="#E1DFDF" fill="#EBE9E9"/>
	</g>
</g><g>
	<g>
		<path d="M369.789,391H136c-24.814,0-45-20.186-45-45V166c0-14.648,7.141-27.556,18.01-35.779L65.603,86.814    C23.994,133.528,0,192.926,0,256c0,140.914,115.045,256,256,256c63.074,0,122.472-23.994,169.186-65.603L369.789,391z" data-original="#000000" class="active-path" data-old_color="#E1DFDF" fill="#EBE9E9"/>
	</g>
</g></g> </svg>
